<svg width="1000" height="1000" viewBox="0 0 1000 1000" fill="none" xmlns="http://www.w3.org/2000/svg">
<g filter="url(#filter0_d_13_54)">
<path d="M500 50C748.528 50 950 251.472 950 500C950 748.528 748.528 950 500 950C251.472 950 50 748.528 50 500C50 251.472 251.472 50 500 50ZM497.567 254.324C363.228 254.324 254.324 363.228 254.324 497.567C254.324 631.907 363.228 740.81 497.567 740.811C631.907 740.811 740.811 631.907 740.811 497.567C740.81 363.228 631.907 254.324 497.567 254.324Z" fill="#0F6E56"/>
<path d="M497.567 254.324V244.324V244.324V254.324ZM254.324 497.567H244.324V497.567H254.324ZM497.567 740.811V750.811V750.811V740.811ZM740.811 497.567H750.811V497.567H740.811ZM500 50V60C743.005 60 940 256.995 940 500H950H960C960 245.949 754.051 40 500 40V50ZM950 500H940C940 743.005 743.005 940 500 940V950V960C754.051 960 960 754.051 960 500H950ZM500 950V940C256.995 940 60 743.005 60 500H50H40C40 754.051 245.949 960 500 960V950ZM50 500H60C60 256.995 256.995 60 500 60V50V40C245.949 40 40 245.949 40 500H50ZM497.567 254.324V244.324C357.705 244.324 244.324 357.705 244.324 497.567H254.324H264.324C264.324 368.751 368.751 264.324 497.567 264.324V254.324ZM254.324 497.567H244.324C244.324 637.43 357.705 750.81 497.567 750.811V740.811V730.811C368.751 730.81 264.324 626.384 264.324 497.567H254.324ZM497.567 740.811V750.811C637.43 750.811 750.811 637.43 750.811 497.567H740.811H730.811C730.811 626.384 626.384 730.811 497.567 730.811V740.811ZM740.811 497.567H750.811C750.81 357.705 637.43 244.324 497.567 244.324V254.324V264.324C626.384 264.324 730.81 368.751 730.811 497.567H740.811Z" fill="black"/>
</g>
<g filter="url(#filter1_d_13_54)">
<rect x="88.9189" y="774.68" width="316.216" height="194.595" rx="45" transform="rotate(-45 88.9189 774.68)" fill="white"/>
<rect x="88.9189" y="774.68" width="316.216" height="194.595" rx="45" transform="rotate(-45 88.9189 774.68)" stroke="black" stroke-width="20"/>
</g>
<g filter="url(#filter2_d_13_54)">
<rect x="698.41" y="551.081" width="316.216" height="194.595" rx="45" transform="rotate(45 698.41 551.081)" fill="white"/>
<rect x="698.41" y="551.081" width="316.216" height="194.595" rx="45" transform="rotate(45 698.41 551.081)" stroke="black" stroke-width="20"/>
</g>
<g filter="url(#filter3_d_13_54)">
<rect x="226.518" y="74.3243" width="316.216" height="194.595" rx="45" transform="rotate(45 226.518 74.3243)" fill="white"/>
<rect x="226.518" y="74.3243" width="316.216" height="194.595" rx="45" transform="rotate(45 226.518 74.3243)" stroke="black" stroke-width="20"/>
</g>
<g filter="url(#filter4_d_13_54)">
<rect x="560.811" y="297.923" width="316.216" height="194.595" rx="45" transform="rotate(-45 560.811 297.923)" fill="white"/>
<rect x="560.811" y="297.923" width="316.216" height="194.595" rx="45" transform="rotate(-45 560.811 297.923)" stroke="black" stroke-width="20"/>
</g>
<defs>
<filter id="filter0_d_13_54" x="36" y="40" width="928" height="928" filterUnits="userSpaceOnUse" color-interpolation-filters="sRGB">
<feFlood flood-opacity="0" result="BackgroundImageFix"/>
<feColorMatrix in="SourceAlpha" type="matrix" values="0 0 0 0 0 0 0 0 0 0 0 0 0 0 0 0 0 0 127 0" result="hardAlpha"/>
<feOffset dy="4"/>
<feGaussianBlur stdDeviation="2"/>
<feComposite in2="hardAlpha" operator="out"/>
<feColorMatrix type="matrix" values="0 0 0 0 0 0 0 0 0 0 0 0 0 0 0 0 0 0 0.25 0"/>
<feBlend mode="normal" in2="BackgroundImageFix" result="effect1_dropShadow_13_54"/>
<feBlend mode="normal" in="SourceGraphic" in2="effect1_dropShadow_13_54" result="shape"/>
</filter>
<filter id="filter1_d_13_54" x="93.5585" y="559.721" width="351.919" height="351.918" filterUnits="userSpaceOnUse" color-interpolation-filters="sRGB">
<feFlood flood-opacity="0" result="BackgroundImageFix"/>
<feColorMatrix in="SourceAlpha" type="matrix" values="0 0 0 0 0 0 0 0 0 0 0 0 0 0 0 0 0 0 127 0" result="hardAlpha"/>
<feOffset dy="4"/>
<feGaussianBlur stdDeviation="2"/>
<feComposite in2="hardAlpha" operator="out"/>
<feColorMatrix type="matrix" values="0 0 0 0 0 0 0 0 0 0 0 0 0 0 0 0 0 0 0.25 0"/>
<feBlend mode="normal" in2="BackgroundImageFix" result="effect1_dropShadow_13_54"/>
<feBlend mode="normal" in="SourceGraphic" in2="effect1_dropShadow_13_54" result="shape"/>
</filter>
<filter id="filter2_d_13_54" x="565.451" y="559.721" width="351.918" height="351.919" filterUnits="userSpaceOnUse" color-interpolation-filters="sRGB">
<feFlood flood-opacity="0" result="BackgroundImageFix"/>
<feColorMatrix in="SourceAlpha" type="matrix" values="0 0 0 0 0 0 0 0 0 0 0 0 0 0 0 0 0 0 127 0" result="hardAlpha"/>
<feOffset dy="4"/>
<feGaussianBlur stdDeviation="2"/>
<feComposite in2="hardAlpha" operator="out"/>
<feColorMatrix type="matrix" values="0 0 0 0 0 0 0 0 0 0 0 0 0 0 0 0 0 0 0.25 0"/>
<feBlend mode="normal" in2="BackgroundImageFix" result="effect1_dropShadow_13_54"/>
<feBlend mode="normal" in="SourceGraphic" in2="effect1_dropShadow_13_54" result="shape"/>
</filter>
<filter id="filter3_d_13_54" x="93.5585" y="82.9639" width="351.919" height="351.919" filterUnits="userSpaceOnUse" color-interpolation-filters="sRGB">
<feFlood flood-opacity="0" result="BackgroundImageFix"/>
<feColorMatrix in="SourceAlpha" type="matrix" values="0 0 0 0 0 0 0 0 0 0 0 0 0 0 0 0 0 0 127 0" result="hardAlpha"/>
<feOffset dy="4"/>
<feGaussianBlur stdDeviation="2"/>
<feComposite in2="hardAlpha" operator="out"/>
<feColorMatrix type="matrix" values="0 0 0 0 0 0 0 0 0 0 0 0 0 0 0 0 0 0 0.25 0"/>
<feBlend mode="normal" in2="BackgroundImageFix" result="effect1_dropShadow_13_54"/>
<feBlend mode="normal" in="SourceGraphic" in2="effect1_dropShadow_13_54" result="shape"/>
</filter>
<filter id="filter4_d_13_54" x="565.45" y="82.9637" width="351.919" height="351.919" filterUnits="userSpaceOnUse" color-interpolation-filters="sRGB">
<feFlood flood-opacity="0" result="BackgroundImageFix"/>
<feColorMatrix in="SourceAlpha" type="matrix" values="0 0 0 0 0 0 0 0 0 0 0 0 0 0 0 0 0 0 127 0" result="hardAlpha"/>
<feOffset dy="4"/>
<feGaussianBlur stdDeviation="2"/>
<feComposite in2="hardAlpha" operator="out"/>
<feColorMatrix type="matrix" values="0 0 0 0 0 0 0 0 0 0 0 0 0 0 0 0 0 0 0.25 0"/>
<feBlend mode="normal" in2="BackgroundImageFix" result="effect1_dropShadow_13_54"/>
<feBlend mode="normal" in="SourceGraphic" in2="effect1_dropShadow_13_54" result="shape"/>
</filter>
</defs>
</svg>
