<svg width="1000" height="1000" viewBox="0 0 1000 1000" fill="none" xmlns="http://www.w3.org/2000/svg">
<g filter="url(#filter0_d_23_2)">
<rect x="25" y="25" width="950" height="950" rx="200" fill="white" shape-rendering="crispEdges"/>
<rect x="17.5" y="17.5" width="965" height="965" rx="207.5" stroke="black" stroke-opacity="0.35" stroke-width="15" shape-rendering="crispEdges"/>
</g>
<g filter="url(#filter1_d_23_2)">
<path d="M175 452.125H283.333C302.488 452.125 320.858 459.737 334.402 473.287C347.946 486.836 355.556 505.213 355.556 524.375V632.75C355.556 651.912 347.946 670.289 334.402 683.838C320.858 697.388 302.488 705 283.333 705H247.222C228.068 705 209.698 697.388 196.153 683.838C182.609 670.289 175 651.912 175 632.75V452.125ZM175 452.125C175 409.429 183.406 367.151 199.739 327.705C216.072 288.259 240.011 252.418 270.19 222.227C300.369 192.036 336.197 168.088 375.628 151.749C415.059 135.41 457.32 127 500 127C542.68 127 584.941 135.41 624.372 151.749C663.803 168.088 699.631 192.036 729.81 222.227C759.989 252.418 783.928 288.259 800.261 327.705C816.594 367.151 825 409.429 825 452.125M825 452.125V632.75C825 651.912 817.391 670.289 803.847 683.838C790.302 697.388 771.932 705 752.778 705H716.667C697.512 705 679.142 697.388 665.598 683.838C652.054 670.289 644.444 651.912 644.444 632.75V524.375C644.444 505.213 652.054 486.836 665.598 473.287C679.142 459.737 697.512 452.125 716.667 452.125H825Z" stroke="black" stroke-width="60" stroke-linecap="round" stroke-linejoin="round" shape-rendering="crispEdges"/>
</g>
<g filter="url(#filter2_d_23_2)">
<path d="M825 630V727.333C825 766.232 809.548 803.537 782.042 831.042C754.537 858.548 717.232 874 678.333 874H495" stroke="black" stroke-width="60" stroke-linecap="round" stroke-linejoin="round"/>
</g>
<defs>
<filter id="filter0_d_23_2" x="6" y="10" width="988" height="988" filterUnits="userSpaceOnUse" color-interpolation-filters="sRGB">
<feFlood flood-opacity="0" result="BackgroundImageFix"/>
<feColorMatrix in="SourceAlpha" type="matrix" values="0 0 0 0 0 0 0 0 0 0 0 0 0 0 0 0 0 0 127 0" result="hardAlpha"/>
<feOffset dy="4"/>
<feGaussianBlur stdDeviation="2"/>
<feComposite in2="hardAlpha" operator="out"/>
<feColorMatrix type="matrix" values="0 0 0 0 0 0 0 0 0 0 0 0 0 0 0 0 0 0 0.25 0"/>
<feBlend mode="normal" in2="BackgroundImageFix" result="effect1_dropShadow_23_2"/>
<feBlend mode="normal" in="SourceGraphic" in2="effect1_dropShadow_23_2" result="shape"/>
</filter>
<filter id="filter1_d_23_2" x="141" y="97" width="718" height="646" filterUnits="userSpaceOnUse" color-interpolation-filters="sRGB">
<feFlood flood-opacity="0" result="BackgroundImageFix"/>
<feColorMatrix in="SourceAlpha" type="matrix" values="0 0 0 0 0 0 0 0 0 0 0 0 0 0 0 0 0 0 127 0" result="hardAlpha"/>
<feOffset dy="4"/>
<feGaussianBlur stdDeviation="2"/>
<feComposite in2="hardAlpha" operator="out"/>
<feColorMatrix type="matrix" values="0 0 0 0 0 0 0 0 0 0 0 0 0 0 0 0 0 0 0.4 0"/>
<feBlend mode="normal" in2="BackgroundImageFix" result="effect1_dropShadow_23_2"/>
<feBlend mode="normal" in="SourceGraphic" in2="effect1_dropShadow_23_2" result="shape"/>
</filter>
<filter id="filter2_d_23_2" x="461" y="600" width="398" height="312" filterUnits="userSpaceOnUse" color-interpolation-filters="sRGB">
<feFlood flood-opacity="0" result="BackgroundImageFix"/>
<feColorMatrix in="SourceAlpha" type="matrix" values="0 0 0 0 0 0 0 0 0 0 0 0 0 0 0 0 0 0 127 0" result="hardAlpha"/>
<feOffset dy="4"/>
<feGaussianBlur stdDeviation="2"/>
<feComposite in2="hardAlpha" operator="out"/>
<feColorMatrix type="matrix" values="0 0 0 0 0 0 0 0 0 0 0 0 0 0 0 0 0 0 0.4 0"/>
<feBlend mode="normal" in2="BackgroundImageFix" result="effect1_dropShadow_23_2"/>
<feBlend mode="normal" in="SourceGraphic" in2="effect1_dropShadow_23_2" result="shape"/>
</filter>
</defs>
</svg>
